<svg viewBox="0 0 200 200" xmlns="http://www.w3.org/2000/svg" role="img">
    <defs><clipPath id="c"><circle cx="100" cy="100" r="100"/></clipPath></defs>
    <g clip-path="url(#c)">
      <circle cx="100" cy="100" r="100" fill="#FFF3DE"/>
      
    <rect x="0" y="174" width="200" height="40" fill="#F2DCB8"/>
    
  <g transform="translate(40 175) scale(0.5)" fill="#EBCB97">
    <circle cx="-6" cy="-5" r="7"/><circle cx="5" cy="-7.5" r="9"/><circle cx="13" cy="-4" r="6"/>
    <rect x="-13" y="-5" width="28" height="5" rx="2.5"/>
  </g>
    
  <g transform="translate(158 175) scale(0.44)" fill="#EBCB97">
    <circle cx="-6" cy="-5" r="7"/><circle cx="5" cy="-7.5" r="9"/><circle cx="13" cy="-4" r="6"/>
    <rect x="-13" y="-5" width="28" height="5" rx="2.5"/>
  </g>
    <g transform="translate(72 174) scale(1.02 1.02)">
    <ellipse cx="0" cy="0.5" rx="15" ry="3.3" fill="#1E2A32" opacity="0.1"/>
    <path d="M -5.5 -44 L -5.5 -3 M 5.5 -44 L 5.5 -3" stroke="#3E4A50" stroke-width="8" stroke-linecap="round"/>
    <path d="M -5.5 -2.5 L -9.5 -2.5 M 5.5 -2.5 L 9.5 -2.5" stroke="#1E2A32" stroke-width="5" stroke-linecap="round" opacity="0.8"/>
    
      <path d="M -12 -71 L -17 -58 L -16 -45" stroke="#7268ab" stroke-width="7" stroke-linecap="round" stroke-linejoin="round" fill="none"/>
      <path d="M 12 -71 L 19 -58 L 25 -48" stroke="#7268ab" stroke-width="7" stroke-linecap="round" stroke-linejoin="round" fill="none"/>
    <path d="M -13 -74 q 0 -4 4 -4.6 q 4.6 -1.2 9 -1.2 q 4.4 0 9 1.2 q 4 0.6 4 4.6 l 0 26 q 0 5 -5 5 l -16 0 q -5 0 -5 -5 z" fill="#8B7FD1"/>
    
      <circle cx="-16" cy="-44" r="3.5" fill="#8E5A32"/>
      <circle cx="25" cy="-47" r="3.5" fill="#8E5A32"/>
    <rect x="-3.2" y="-80" width="6.4" height="6" rx="3" fill="#8E5A32"/>
    
    <circle cx="0" cy="-86" r="11.5" fill="#8E5A32"/>
    <path d="M -12.3 -85.08 a 12.3 12.3 0 0 1 24.6 0 z" fill="#C0392B"/>
        <path d="M -12.3 -85.31 q 11.5 4.83 24.6 0" stroke="#962c22" stroke-width="2.53" fill="none"/>
        <circle cx="8.28" cy="-94.28" r="3.91" fill="#C0392B"/>
    
    <circle cx="-3.91" cy="-84.62" r="1.5525000000000002" fill="#1E2A32"/>
    <circle cx="3.91" cy="-84.62" r="1.5525000000000002" fill="#1E2A32"/>
    <path d="M -3.4499999999999997 -80.71 q 3.4499999999999997 3.68 6.8999999999999995 0" stroke="#1E2A32" stroke-width="1.265" stroke-linecap="round" fill="none" opacity="0.85"/>
    <circle cx="-7.36" cy="-81.63" r="1.955" fill="#FF6B5B" opacity="0.2"/>
    <circle cx="7.36" cy="-81.63" r="1.955" fill="#FF6B5B" opacity="0.2"/>
    
  </g>
    <g transform="translate(122 174) scale(1.04 1.04)">
    <ellipse cx="0" cy="0.5" rx="11" ry="2.42" fill="#1E2A32" opacity="0.1"/>
    <path d="M -4.4 -27 L -4.4 -2.5 M 4.4 -27 L 4.4 -2.5" stroke="#2F3B43" stroke-width="7" stroke-linecap="round"/>
    <path d="M -4.4 -2 L -8 -2 M 4.4 -2 L 8 -2" stroke="#1E2A32" stroke-width="4.4" stroke-linecap="round" opacity="0.8"/>
    
      <path d="M -9 -41 L -14 -34 L -7 -30" stroke="#d1973f" stroke-width="6" stroke-linecap="round" stroke-linejoin="round" fill="none"/>
      <path d="M 9 -41 L 14 -34 L 7 -30" stroke="#d1973f" stroke-width="6" stroke-linecap="round" stroke-linejoin="round" fill="none"/>
    <path d="M -10 -44 q 0 -3.4 3.4 -4 q 3.4 -1 6.6 -1 q 3.2 0 6.6 1 q 3.4 0.6 3.4 4 l 0 15 q 0 4 -4 4 l -12 0 q -4 0 -4 -4 z" fill="#FFB84D"/>
    
      <circle cx="-7" cy="-29" r="3" fill="#E8B48A"/>
      <circle cx="7" cy="-29" r="3" fill="#E8B48A"/>
    <rect x="-2.8" y="-49" width="5.6" height="5.5" rx="2.8" fill="#E8B48A"/>
    
    <circle cx="0" cy="-54" r="10" fill="#E8B48A"/>
    <g fill="#8C4A2B">
        <circle cx="-7" cy="-58.2" r="5"/>
        <circle cx="0" cy="-60.8" r="5.6000000000000005"/>
        <circle cx="7" cy="-58.2" r="5"/>
        <circle cx="-10" cy="-52.4" r="4"/>
        <circle cx="10" cy="-52.4" r="4"/>
      </g>
    
    <circle cx="-3.4000000000000004" cy="-52.8" r="1.35" fill="#1E2A32"/>
    <circle cx="3.4000000000000004" cy="-52.8" r="1.35" fill="#1E2A32"/>
    <path d="M -3 -49.4 q 3 3.2 6 0" stroke="#1E2A32" stroke-width="1.1" stroke-linecap="round" fill="none" opacity="0.85"/>
    <circle cx="-6.4" cy="-50.2" r="1.7000000000000002" fill="#FF6B5B" opacity="0.2"/>
    <circle cx="6.4" cy="-50.2" r="1.7000000000000002" fill="#FF6B5B" opacity="0.2"/>
    
  <g transform="translate(0 -33) scale(1.05)">
    <rect x="-11" y="-8" width="22" height="16" rx="2.6" fill="#1E2A32"/>
    <rect x="-9.6" y="-6.7" width="19.2" height="13.4" rx="1.6" fill="#FFFFFF"/>
    <rect x="-7.6" y="-4.4" width="6" height="2" rx="1" fill="#5FD3C4"/>
    <rect x="-7.6" y="-1.2" width="11" height="2" rx="1" fill="#FFB84D"/>
    <rect x="-7.6" y="2" width="8" height="2" rx="1" fill="#8B7FD1"/>
  </g>
  </g>
    
  <g transform="translate(158 72) scale(0.9)">
    <rect x="-19" y="-15" width="38" height="30" rx="6" fill="#FFFFFF"/>
    <rect x="-13" y="-9" width="17" height="3" rx="1.5" fill="#E7E1D6"/>
    <rect x="-13" y="2" width="4.5" height="7" rx="1.6" fill="#5FD3C4"/>
    <rect x="-6.5" y="-2" width="4.5" height="11" rx="1.6" fill="#147D77"/>
    <rect x="0" y="4" width="4.5" height="5" rx="1.6" fill="#5FD3C4"/>
    <rect x="6.5" y="-4" width="4.5" height="13" rx="1.6" fill="#FFB84D"/>
  </g>
    <path d="M 140 104 Q 152 88 154 84" stroke="#FFB84D" stroke-width="2.2" stroke-dasharray="4 5.5" stroke-linecap="round" fill="none" opacity="0.7"/>
  
    </g>
  </svg>